<svg xmlns="http://www.w3.org/2000/svg" viewBox="0 0 243.64 76.34"><defs><style>.cls-1{font-size:68px;fill:#ff385c;stroke-width:2px;font-family:TwCenMT-Regular, Tw Cen MT;}.cls-1,.cls-5{stroke:#ff385c;stroke-miterlimit:10;}.cls-2{letter-spacing:-0.08em;}.cls-3{letter-spacing:-0.06em;}.cls-4{letter-spacing:-0.04em;}.cls-5{fill:none;stroke-width:5px;}</style></defs><g id="レイヤー_2" data-name="レイヤー 2"><g id="レイヤー_1-2" data-name="レイヤー 1"><text class="cls-1" transform="translate(81.78 56.45)"><tspan class="cls-2">a</tspan><tspan class="cls-3" x="32.08" y="0">ir</tspan><tspan class="cls-4" x="61.47" y="0">bn</tspan><tspan x="123.33" y="0">b</tspan></text><path class="cls-5" d="M4,51.91,24.19,11.22a5.73,5.73,0,0,1,.46-.8c13.64-19.79,23.19,3.74,23.19,3.74L65.55,51.75a10.6,10.6,0,0,1,.83,2.33C70.6,73,54.17,73.35,54.17,73.35c-13,.55-23.77-18.16-27.93-26.55a11.41,11.41,0,0,1-.52-9c3-8.26,8.35-8.57,11.88-7.66a8.68,8.68,0,0,1,5.59,4.68c5.44,11.1-5.4,22.87-5.4,22.87L25.35,69.35A13.22,13.22,0,0,1,4.87,66.42,20,20,0,0,1,3,62,13.94,13.94,0,0,1,4,51.91Z"/></g></g></svg>