<svg xmlns="http://www.w3.org/2000/svg" viewBox="0 0 34.09 29.12"><defs><style>.cls-1{fill:#231815;}</style></defs><g id="レイヤー_2" data-name="レイヤー 2"><g id="レイヤー_2-2" data-name="レイヤー 2"><path class="cls-1" d="M1.7,2.57C12.37,10,17,9.06,17,9.06,17.79-3.6,27.42.71,27.42.71L30,2.2h4.1L31.48,5.31h2.61l-1.9,1.4a3.42,3.42,0,0,0-1.38,2.78C31,23.35,19.94,27.14,19.94,27.14,4.31,32.35,1.7,25.65,1.7,25.65c7.62,0,7.62-2.88,7.62-2.88C2.44,20.94,2.75,18,2.75,18H6.57A13.32,13.32,0,0,1,0,10l4.12.85C-.31,6.73,1.7,2.57,1.7,2.57Z"/></g></g></svg>